<svg width="56" height="57" viewBox="0 0 56 57" fill="none" xmlns="http://www.w3.org/2000/svg">
<rect y="0.5" width="56" height="56" rx="28" fill="#D9D9D9"/>
<path d="M34 15.5H22C20.1441 15.502 18.3648 16.2401 17.0524 17.5524C15.7401 18.8648 15.002 20.6441 15 22.5V34.5C15.002 36.3559 15.7401 38.1352 17.0524 39.4476C18.3648 40.7599 20.1441 41.498 22 41.5H34C35.8559 41.498 37.6352 40.7599 38.9476 39.4476C40.2599 38.1352 40.998 36.3559 41 34.5V22.5C40.998 20.6441 40.2599 18.8648 38.9476 17.5524C37.6352 16.2401 35.8559 15.502 34 15.5ZM28 34.5C26.8133 34.5 25.6533 34.1481 24.6666 33.4888C23.6799 32.8295 22.9108 31.8925 22.4567 30.7961C22.0026 29.6997 21.8838 28.4933 22.1153 27.3295C22.3468 26.1656 22.9182 25.0965 23.7574 24.2574C24.5965 23.4182 25.6656 22.8468 26.8295 22.6153C27.9933 22.3838 29.1997 22.5026 30.2961 22.9567C31.3925 23.4108 32.3295 24.1799 32.9888 25.1666C33.6481 26.1533 34 27.3133 34 28.5C33.9983 30.0908 33.3657 31.616 32.2408 32.7408C31.116 33.8657 29.5908 34.4983 28 34.5ZM35.5 22.5C35.2033 22.5 34.9133 22.412 34.6666 22.2472C34.42 22.0824 34.2277 21.8481 34.1142 21.574C34.0007 21.2999 33.9709 20.9983 34.0288 20.7074C34.0867 20.4164 34.2296 20.1491 34.4393 19.9393C34.6491 19.7296 34.9164 19.5867 35.2074 19.5288C35.4983 19.4709 35.7999 19.5006 36.074 19.6142C36.3481 19.7277 36.5824 19.92 36.7472 20.1666C36.912 20.4133 37 20.7033 37 21C37 21.3978 36.842 21.7794 36.5607 22.0607C36.2794 22.342 35.8978 22.5 35.5 22.5ZM32 28.5C32 29.2911 31.7654 30.0645 31.3259 30.7223C30.8864 31.3801 30.2616 31.8928 29.5307 32.1955C28.7998 32.4983 27.9956 32.5775 27.2196 32.4231C26.4437 32.2688 25.731 31.8878 25.1716 31.3284C24.6122 30.769 24.2312 30.0563 24.0769 29.2804C23.9225 28.5044 24.0017 27.7002 24.3045 26.9693C24.6072 26.2384 25.1199 25.6136 25.7777 25.1741C26.4355 24.7346 27.2089 24.5 28 24.5C29.0609 24.5 30.0783 24.9214 30.8284 25.6716C31.5786 26.4217 32 27.4391 32 28.5Z" fill="white"/>
</svg>
