<svg width="163" height="27" viewBox="0 0 163 27" fill="none" xmlns="http://www.w3.org/2000/svg">
<path d="M9.872 0.872C6.74 0.872 3.788 2.6 3.788 5.696C3.788 12.572 21.536 12.86 21.536 20.06C21.536 24.308 16.388 26.576 11.204 26.576C5.948 26.576 0.62 24.236 0.62 19.268H0.944C0.944 24.02 6.02 26.036 10.772 26.036C14.948 26.036 18.908 24.488 18.908 21.896C18.908 15.128 1.556 15.632 1.556 7.352C1.556 2.492 6.128 0.403999 10.772 0.403999C21.068 0.403999 21.68 9.224 18.08 9.224C17.324 9.224 16.64 8.684 16.64 7.748C16.64 3.644 14.516 0.872 9.872 0.872ZM42.6067 17.144H42.8227L41.5627 26H22.8427V25.64C24.3547 25.64 25.3267 24.236 25.3267 21.932V4.868C25.3267 2.564 24.3547 1.16 22.8427 1.16V0.799998H40.6267L41.8507 6.38H41.6347C40.6267 3.176 38.8267 1.124 35.5147 1.124H28.7467V25.676H36.0187C39.2947 25.676 41.9587 20.456 42.6067 17.144ZM35.2627 15.488V17.324H35.0467V15.488C35.0467 14.048 34.1827 13.112 32.8867 13.112H32.6707V12.896H32.8867C34.1827 12.896 35.0467 11.924 35.0467 10.52V8.684H35.2627V10.52C35.2627 11.924 36.1267 12.896 37.4227 12.896H37.8187V13.112H37.4227C36.1267 13.112 35.2627 14.048 35.2627 15.488ZM43.4091 1.16H43.3731V0.799998H52.6971C65.2251 0.799998 65.9091 10.556 57.5571 12.608L65.4051 23.372C65.9811 24.164 67.1331 25.64 68.2131 25.64H68.1411V26H63.2451L54.2091 13.004H49.3131V21.932C49.3131 24.236 50.3211 25.64 51.7971 25.64H51.8331V26H43.3731V25.64H43.4091C44.8851 25.64 45.8931 24.236 45.8931 21.932V4.868C45.8931 2.564 44.8851 1.16 43.4091 1.16ZM49.3131 12.68H54.2091C60.1491 12.68 63.5691 1.088 52.6971 1.088H49.3131V12.68ZM85.4205 22.904L77.2485 3.608L69.3645 21.14C69.1125 21.644 69.0045 22.112 69.0045 22.472C69.0045 23.696 69.4725 25.64 71.2725 25.64H71.4525V26H64.1445V25.64C65.8365 25.64 67.8885 23.516 68.5365 22.112L77.1405 3.284L76.0605 0.799998H79.7685L89.5965 23.372C89.9925 24.272 91.2525 25.64 92.2965 25.64V26H84.4845V25.64H84.5925C85.4925 25.64 85.8165 25.172 85.8165 24.524C85.8165 24.02 85.6725 23.444 85.4205 22.904ZM76.8525 21.284V23.12H76.6365V21.284C76.6365 19.844 75.7725 18.908 74.4765 18.908H74.2605V18.692H74.4765C75.7725 18.692 76.6365 17.72 76.6365 16.28V14.48H76.8525V16.28C76.8525 17.72 77.7165 18.692 79.0125 18.692H79.4085V18.908H79.0125C77.7165 18.908 76.8525 19.844 76.8525 21.284ZM89.5785 7.208H89.2905L90.1185 0.799998H109.739L110.567 7.208H110.279C109.307 3.356 106.175 1.124 103.007 1.124H101.675V21.932C101.675 24.236 102.647 25.64 104.123 25.64H104.159V26H95.7345V25.64H95.7705C97.2465 25.64 98.2185 24.236 98.2185 21.932V1.124H96.8505C93.6825 1.124 91.0185 3.464 89.5785 7.208ZM129.471 22.904L121.299 3.608L113.415 21.14C113.163 21.644 113.055 22.112 113.055 22.472C113.055 23.696 113.523 25.64 115.323 25.64H115.503V26H108.195V25.64C109.887 25.64 111.939 23.516 112.587 22.112L121.191 3.284L120.111 0.799998H123.819L133.647 23.372C134.043 24.272 135.303 25.64 136.347 25.64V26H128.535V25.64H128.643C129.543 25.64 129.867 25.172 129.867 24.524C129.867 24.02 129.723 23.444 129.471 22.904ZM120.903 21.284V23.12H120.687V21.284C120.687 19.844 119.823 18.908 118.527 18.908H118.311V18.692H118.527C119.823 18.692 120.687 17.72 120.687 16.28V14.48H120.903V16.28C120.903 17.72 121.767 18.692 123.063 18.692H123.459V18.908H123.063C121.767 18.908 120.903 19.844 120.903 21.284ZM158.999 26L140.243 3.932V21.464C140.243 23.768 142.043 25.64 143.519 25.64H143.555V26H136.571V25.64H136.607C138.083 25.64 139.919 23.768 139.919 21.464V4.868C139.919 2.564 138.911 1.16 137.435 1.16V0.799998H142.007L158.999 20.204V5.588C158.999 3.284 157.199 1.16 155.723 1.16H155.687V0.799998H162.347V1.16H162.311C160.835 1.16 159.323 3.284 159.323 5.588V26H158.999Z" fill="#2E2E2E"/>
</svg>
