<svg width="52" height="55" viewBox="0 0 52 55" fill="none" xmlns="http://www.w3.org/2000/svg">
<rect y="0.499756" width="52" height="54.0005" rx="26" fill="#D9D9D9"/>
<path d="M36.876 38.9815C36.7899 39.1384 36.6633 39.2693 36.5094 39.3605C36.3555 39.4517 36.1799 39.5 36.001 39.5003H30.0008C29.8325 39.5003 29.667 39.4577 29.5195 39.3767C29.372 39.2956 29.2473 39.1786 29.1571 39.0365L24.0957 31.0826L16.7405 39.1728C16.5612 39.3654 16.3132 39.4796 16.0503 39.4906C15.7874 39.5015 15.5308 39.4085 15.336 39.2315C15.1413 39.0545 15.0241 38.8079 15.01 38.5451C14.9959 38.2824 15.0859 38.0246 15.2605 37.8278L22.9819 29.3276L15.1567 17.0373C15.0604 16.8861 15.0064 16.7118 15.0005 16.5326C14.9947 16.3533 15.0371 16.1759 15.1233 16.0187C15.2096 15.8615 15.3365 15.7304 15.4909 15.6391C15.6452 15.5478 15.8212 15.4997 16.0005 15.4998H22.0006C22.169 15.4998 22.3345 15.5423 22.482 15.6234C22.6295 15.7045 22.7542 15.8215 22.8444 15.9635L27.9058 23.9174L35.261 15.8273C35.4403 15.6347 35.6882 15.5205 35.9512 15.5095C36.2141 15.4985 36.4707 15.5916 36.6655 15.7686C36.8602 15.9456 36.9773 16.1922 36.9915 16.4549C37.0056 16.7177 36.9156 16.9754 36.741 17.1723L29.0196 25.6662L36.8447 37.964C36.9406 38.1153 36.994 38.2895 36.9995 38.4685C37.005 38.6475 36.9624 38.8247 36.876 38.9815Z" fill="white"/>
</svg>
