<svg width="56" height="57" viewBox="0 0 56 57" fill="none" xmlns="http://www.w3.org/2000/svg">
<rect y="0.5" width="56" height="56" rx="28" fill="#D9D9D9"/>
<path d="M41 28.5429C40.9959 31.731 39.8302 34.8076 37.7224 37.1931C35.6145 39.5786 32.7101 41.1085 29.5562 41.4944C29.486 41.5024 29.4149 41.4954 29.3476 41.4738C29.2803 41.4521 29.2183 41.4165 29.1657 41.369C29.1131 41.3216 29.0712 41.2636 29.0426 41.1987C29.0141 41.1339 28.9995 41.0637 29 40.9927V31.5531H32C32.1371 31.5534 32.2728 31.5254 32.3986 31.4709C32.5245 31.4164 32.6378 31.3365 32.7316 31.2361C32.8254 31.1358 32.8976 31.0172 32.9438 30.8877C32.9899 30.7581 33.0091 30.6205 33 30.4832C32.9779 30.2252 32.8593 29.9851 32.6679 29.8113C32.4766 29.6375 32.2268 29.5428 31.9687 29.5463H29V26.5361C29 26.0038 29.2107 25.4934 29.5858 25.117C29.9608 24.7407 30.4695 24.5292 31 24.5292H33C33.1371 24.5295 33.2728 24.5015 33.3986 24.447C33.5245 24.3925 33.6378 24.3126 33.7316 24.2122C33.8254 24.1119 33.8976 23.9933 33.9438 23.8638C33.9899 23.7342 34.0091 23.5966 34 23.4593C33.9779 23.2009 33.8589 22.9604 33.667 22.7866C33.4752 22.6127 33.2247 22.5183 32.9662 22.5224H31C29.9391 22.5224 28.9217 22.9453 28.1715 23.698C27.4214 24.4507 27 25.4716 27 26.5361V29.5463H24C23.8629 29.546 23.7272 29.574 23.6013 29.6285C23.4755 29.683 23.3621 29.763 23.2684 29.8633C23.1746 29.9636 23.1024 30.0822 23.0562 30.2117C23.01 30.3413 22.9909 30.4789 23 30.6162C23.0221 30.8746 23.1411 31.1151 23.3329 31.289C23.5248 31.4628 23.7752 31.5572 24.0337 31.5531H27V40.9952C27.0004 41.066 26.9859 41.1361 26.9574 41.2009C26.9289 41.2657 26.8871 41.3237 26.8346 41.371C26.7822 41.4184 26.7204 41.4541 26.6532 41.4758C26.5861 41.4975 26.5151 41.5047 26.445 41.497C23.2067 41.1012 20.2344 39.5 18.1165 37.0103C15.9987 34.5205 14.8895 31.3236 15.0087 28.0525C15.2587 21.2794 20.7262 15.7732 27.4812 15.5098C29.2301 15.4418 30.9746 15.7285 32.6106 16.3526C34.2465 16.9768 35.7401 17.9256 37.0022 19.1423C38.2642 20.359 39.2688 21.8186 39.9557 23.4338C40.6426 25.0491 40.9978 26.7867 41 28.5429Z" fill="white"/>
</svg>
