<svg width="603" height="36" viewBox="0 0 603 36" fill="none" xmlns="http://www.w3.org/2000/svg">
<path d="M232.984 15.3127C234.151 15.5732 235.172 15.9013 236.047 16.2971C236.922 16.6825 237.609 17.0836 238.109 17.5002C238.62 17.9065 239.026 18.3596 239.328 18.8596C239.641 19.3596 239.844 19.8232 239.938 20.2502C240.042 20.6773 240.094 21.1357 240.094 21.6252C240.094 22.5107 239.911 23.344 239.547 24.1252C239.193 24.9065 238.672 25.6044 237.984 26.219C237.297 26.8232 236.406 27.3075 235.312 27.6721C234.219 28.0263 232.99 28.2034 231.625 28.2034C229.958 28.2034 228.448 27.9534 227.094 27.4534C225.75 26.943 224.609 26.2659 223.672 25.4221L225.969 23.344C226.552 24.6669 227.521 25.7502 228.875 26.594C230.229 27.4273 231.641 27.844 233.109 27.844C233.984 27.844 234.745 27.7034 235.391 27.4221C236.036 27.1305 236.531 26.745 236.875 26.2659C237.229 25.7763 237.484 25.2607 237.641 24.719C237.807 24.1669 237.891 23.5836 237.891 22.969C237.891 22.2919 237.781 21.693 237.562 21.1721C237.354 20.6513 237.083 20.2242 236.75 19.8909C236.417 19.5471 235.948 19.2346 235.344 18.9534C234.75 18.6721 234.172 18.4482 233.609 18.2815C233.057 18.1148 232.344 17.9273 231.469 17.719C230.312 17.4377 229.292 17.094 228.406 16.6877C227.531 16.2815 226.823 15.8596 226.281 15.4221C225.75 14.9742 225.312 14.4846 224.969 13.9534C224.635 13.4117 224.406 12.9013 224.281 12.4221C224.156 11.9325 224.094 11.4169 224.094 10.8752C224.094 9.06274 224.807 7.60441 226.234 6.50024C227.672 5.39608 229.62 4.84399 232.078 4.84399C235.12 4.84399 237.661 5.81795 239.703 7.76587L237.359 9.89087C236.839 8.51587 235.938 7.38566 234.656 6.50024C233.385 5.61483 232.057 5.17212 230.672 5.17212C229.224 5.17212 228.146 5.58358 227.438 6.40649C226.729 7.21899 226.375 8.27108 226.375 9.56274C226.375 10.3023 226.5 10.969 226.75 11.5627C227.01 12.1461 227.333 12.6305 227.719 13.0159C228.104 13.4013 228.604 13.7502 229.219 14.0627C229.833 14.3648 230.422 14.6044 230.984 14.7815C231.547 14.9586 232.214 15.1357 232.984 15.3127ZM247.578 5.59399C247.005 5.64608 246.526 5.88566 246.141 6.31274C245.755 6.73983 245.557 7.23983 245.547 7.81274V25.4846C245.557 26.0575 245.755 26.5575 246.141 26.9846C246.526 27.4117 247.005 27.6513 247.578 27.7034V27.7502H240.906V27.7034C241.49 27.6513 241.974 27.4117 242.359 26.9846C242.755 26.5471 242.953 26.0419 242.953 25.469V25.0471V8.25024V7.84399C242.953 7.26066 242.755 6.75545 242.359 6.32837C241.964 5.89087 241.479 5.64608 240.906 5.59399V5.54712H242.953H245.547H247.578V5.59399ZM265.516 5.59399V5.54712H270.5V5.59399C269.792 5.88566 269.219 6.3492 268.781 6.98462C268.354 7.62004 268.141 8.32316 268.141 9.09399V25.969V28.5315L251 8.15649V24.2815C251 25.0419 251.214 25.745 251.641 26.3909C252.078 27.0263 252.651 27.4898 253.359 27.7815V27.8284H248.375V27.7815C249.083 27.4898 249.651 27.0263 250.078 26.3909C250.516 25.7555 250.734 25.0523 250.734 24.2815V7.84399L250.719 7.82837C249.802 6.74504 248.984 5.98462 248.266 5.54712H252.719C253.083 6.24504 253.474 6.81274 253.891 7.25024L267.875 23.9534V9.09399C267.875 8.32316 267.656 7.62004 267.219 6.98462C266.792 6.3492 266.224 5.88566 265.516 5.59399ZM288.938 24.6877C290.052 23.7502 290.745 22.9638 291.016 22.3284L291.203 21.8752C291.016 22.4794 290.714 23.1252 290.297 23.8127C289.974 24.3857 289.542 24.9794 289 25.594C288.448 26.1669 287.724 26.693 286.828 27.1721C285.943 27.6409 285.005 27.943 284.016 28.0784C282.161 28.3284 280.411 28.1982 278.766 27.6877C277.13 27.1669 275.755 26.3492 274.641 25.2346C273.557 24.1513 272.714 22.9013 272.109 21.4846C271.505 20.068 271.177 18.5992 271.125 17.0784C271.083 15.2867 271.354 13.6409 271.938 12.1409C272.521 10.6409 273.339 9.40129 274.391 8.42212C276.484 6.45337 279.047 5.35962 282.078 5.14087C283.599 5.0367 285.01 5.12524 286.312 5.40649C287.042 5.54191 287.75 5.74504 288.438 6.01587C289.125 6.27629 289.625 6.51587 289.938 6.73462C290.615 7.20337 291.083 7.54712 291.344 7.76587L289.172 9.73462C288.099 8.26587 286.771 7.15649 285.188 6.40649C282.656 5.25024 280.276 5.31795 278.047 6.60962C276.651 7.44295 275.625 8.71379 274.969 10.4221C274.292 12.1825 274.031 14.1461 274.188 16.3127C274.406 19.2294 275.443 21.5992 277.297 23.4221C279.161 25.2242 281.391 26.1409 283.984 26.1721C284.974 26.1721 285.917 26.0315 286.812 25.7502C287.708 25.469 288.417 25.1148 288.938 24.6877ZM301.797 27.4846C303.339 27.4846 304.766 27.0836 306.078 26.2815C307.401 25.4794 308.411 24.3909 309.109 23.0159L307.984 28.5315L306.938 27.7502H296.609H291.984V27.7034C292.557 27.6513 293.036 27.4169 293.422 27.0002C293.807 26.5732 294.005 26.0732 294.016 25.5002V7.81274C294.005 7.23983 293.807 6.73983 293.422 6.31274C293.036 5.88566 292.557 5.64608 291.984 5.59399V5.54712H294.016H308.156L309.109 10.2815C308.411 8.90649 307.401 7.81795 306.078 7.01587C304.766 6.21379 303.339 5.81274 301.797 5.81274H296.609V16.5159H301.812C302.573 16.5159 303.271 16.3023 303.906 15.8752C304.552 15.4377 305.021 14.8648 305.312 14.1565H305.359V19.1409H305.312C305.021 18.4325 304.557 17.8648 303.922 17.4377C303.286 17.0002 302.583 16.7815 301.812 16.7815H297.234H296.609V27.4846H301.797ZM326.969 25.4846C326.979 26.0575 327.177 26.5575 327.562 26.9846C327.948 27.4117 328.427 27.6513 329 27.7034V27.7502H322.328V27.7034C322.901 27.6513 323.38 27.4117 323.766 26.9846C324.161 26.5575 324.359 26.0523 324.359 25.469V25.0471V12.1721V11.4377C324.359 10.7086 324.208 10.0159 323.906 9.35962C323.615 8.69295 323.198 8.11483 322.656 7.62524V7.60962L324.359 6.79712L326.969 5.56274V25.4846ZM337.078 5.46899C339.411 5.46899 341.297 6.32837 342.734 8.04712C344.182 9.75545 344.906 11.969 344.906 14.6877C344.906 16.2607 344.594 17.8127 343.969 19.344C343.354 20.8752 342.547 22.2138 341.547 23.3596C340.557 24.495 339.438 25.4586 338.188 26.2502C336.948 27.0419 335.703 27.5523 334.453 27.7815L334.422 27.594C335.495 27.4169 336.583 26.8492 337.688 25.8909C338.802 24.9325 339.771 23.7607 340.594 22.3752C341.427 20.9898 342.016 19.5732 342.359 18.1252C341.693 18.8023 340.901 19.3232 339.984 19.6877C339.078 20.0523 338.109 20.2346 337.078 20.2346C336.068 20.2346 335.099 20.0419 334.172 19.6565C333.255 19.2607 332.464 18.7346 331.797 18.0784C331.13 17.4221 330.599 16.6357 330.203 15.719C329.807 14.8023 329.609 13.844 329.609 12.844C329.609 10.8127 330.339 9.07837 331.797 7.64087C333.266 6.19295 335.026 5.46899 337.078 5.46899ZM339.797 19.2502C340.932 19.0836 341.75 18.5055 342.25 17.5159C342.76 16.5263 342.911 15.3388 342.703 13.9534C342.547 12.943 342.188 11.9534 341.625 10.9846C341.073 10.0055 340.417 9.17212 339.656 8.48462C338.896 7.7867 338.052 7.25024 337.125 6.87524C336.198 6.50024 335.312 6.37524 334.469 6.50024C333.354 6.65649 332.526 7.21899 331.984 8.18774C331.453 9.15649 331.276 10.3127 331.453 11.6565C331.578 12.6565 331.922 13.6513 332.484 14.6409C333.057 15.6305 333.734 16.4846 334.516 17.2034C335.297 17.9117 336.161 18.4638 337.109 18.8596C338.057 19.245 338.953 19.3752 339.797 19.2502ZM354.453 5.46899C356.786 5.46899 358.672 6.32837 360.109 8.04712C361.557 9.75545 362.281 11.969 362.281 14.6877C362.281 16.2607 361.969 17.8127 361.344 19.344C360.729 20.8752 359.922 22.2138 358.922 23.3596C357.932 24.495 356.812 25.4586 355.562 26.2502C354.323 27.0419 353.078 27.5523 351.828 27.7815L351.797 27.594C352.87 27.4169 353.958 26.8492 355.062 25.8909C356.177 24.9325 357.146 23.7607 357.969 22.3752C358.802 20.9898 359.391 19.5732 359.734 18.1252C359.068 18.8023 358.276 19.3232 357.359 19.6877C356.453 20.0523 355.484 20.2346 354.453 20.2346C353.443 20.2346 352.474 20.0419 351.547 19.6565C350.63 19.2607 349.839 18.7346 349.172 18.0784C348.505 17.4221 347.974 16.6357 347.578 15.719C347.182 14.8023 346.984 13.844 346.984 12.844C346.984 10.8127 347.714 9.07837 349.172 7.64087C350.641 6.19295 352.401 5.46899 354.453 5.46899ZM357.172 19.2502C358.307 19.0836 359.125 18.5055 359.625 17.5159C360.135 16.5263 360.286 15.3388 360.078 13.9534C359.922 12.943 359.562 11.9534 359 10.9846C358.448 10.0055 357.792 9.17212 357.031 8.48462C356.271 7.7867 355.427 7.25024 354.5 6.87524C353.573 6.50024 352.688 6.37524 351.844 6.50024C350.729 6.65649 349.901 7.21899 349.359 8.18774C348.828 9.15649 348.651 10.3127 348.828 11.6565C348.953 12.6565 349.297 13.6513 349.859 14.6409C350.432 15.6305 351.109 16.4846 351.891 17.2034C352.672 17.9117 353.536 18.4638 354.484 18.8596C355.432 19.245 356.328 19.3752 357.172 19.2502ZM371.828 5.46899C374.161 5.46899 376.047 6.32837 377.484 8.04712C378.932 9.75545 379.656 11.969 379.656 14.6877C379.656 16.2607 379.344 17.8127 378.719 19.344C378.104 20.8752 377.297 22.2138 376.297 23.3596C375.307 24.495 374.188 25.4586 372.938 26.2502C371.698 27.0419 370.453 27.5523 369.203 27.7815L369.172 27.594C370.245 27.4169 371.333 26.8492 372.438 25.8909C373.552 24.9325 374.521 23.7607 375.344 22.3752C376.177 20.9898 376.766 19.5732 377.109 18.1252C376.443 18.8023 375.651 19.3232 374.734 19.6877C373.828 20.0523 372.859 20.2346 371.828 20.2346C370.818 20.2346 369.849 20.0419 368.922 19.6565C368.005 19.2607 367.214 18.7346 366.547 18.0784C365.88 17.4221 365.349 16.6357 364.953 15.719C364.557 14.8023 364.359 13.844 364.359 12.844C364.359 10.8127 365.089 9.07837 366.547 7.64087C368.016 6.19295 369.776 5.46899 371.828 5.46899ZM374.547 19.2502C375.682 19.0836 376.5 18.5055 377 17.5159C377.51 16.5263 377.661 15.3388 377.453 13.9534C377.297 12.943 376.938 11.9534 376.375 10.9846C375.823 10.0055 375.167 9.17212 374.406 8.48462C373.646 7.7867 372.802 7.25024 371.875 6.87524C370.948 6.50024 370.062 6.37524 369.219 6.50024C368.104 6.65649 367.276 7.21899 366.734 8.18774C366.203 9.15649 366.026 10.3127 366.203 11.6565C366.328 12.6565 366.672 13.6513 367.234 14.6409C367.807 15.6305 368.484 16.4846 369.266 17.2034C370.047 17.9117 370.911 18.4638 371.859 18.8596C372.807 19.245 373.703 19.3752 374.547 19.2502Z" fill="black"/>
<path d="M397 22.0002V16.0002L603 19.0002L397 22.0002Z" fill="#B1B1B1"/>
<path d="M205 22.0002V16.0002L0 19.0002L205 22.0002Z" fill="#B1B1B1"/>
</svg>
