<svg width="583" height="94" viewBox="0 0 583 94" fill="none" xmlns="http://www.w3.org/2000/svg">
<g filter="url(#filter0_d_132_89)">
<path d="M33.656 1.65624C22.52 1.65624 12.024 7.80024 12.024 18.8082C12.024 43.2562 75.128 44.2802 75.128 69.8802C75.128 84.9842 56.824 93.0482 38.392 93.0482C19.704 93.0482 0.76 84.7282 0.76 67.0642H1.912C1.912 83.9602 19.96 91.1282 36.856 91.1282C51.704 91.1282 65.784 85.6242 65.784 76.4082C65.784 52.3442 4.088 54.1362 4.088 24.6962C4.088 7.41624 20.344 -0.00775909 36.856 -0.00775909C73.464 -0.00775909 75.64 31.3522 62.84 31.3522C60.152 31.3522 57.72 29.4322 57.72 26.1042C57.72 11.5122 50.168 1.65624 33.656 1.65624ZM150.046 59.5122H150.814L146.334 91.0002H79.774V89.7202C85.15 89.7202 88.606 84.7282 88.606 76.5362V15.8642C88.606 7.67224 85.15 2.68024 79.774 2.68024V1.40024H143.006L147.358 21.2402H146.59C143.006 9.84824 136.606 2.55224 124.83 2.55224H100.766V89.8482H126.622C138.27 89.8482 147.742 71.2882 150.046 59.5122ZM123.934 53.6242V60.1522H123.166V53.6242C123.166 48.5042 120.094 45.1762 115.486 45.1762H114.718V44.4082H115.486C120.094 44.4082 123.166 40.9522 123.166 35.9602V29.4322H123.934V35.9602C123.934 40.9522 127.006 44.4082 131.614 44.4082H133.022V45.1762H131.614C127.006 45.1762 123.934 48.5042 123.934 53.6242ZM152.899 2.68024H152.771V1.40024H185.923C230.467 1.40024 232.899 36.0882 203.203 43.3842L231.107 81.6562C233.155 84.4722 237.251 89.7202 241.091 89.7202H240.835V91.0002H223.427L191.299 44.7922H173.891V76.5362C173.891 84.7282 177.475 89.7202 182.723 89.7202H182.851V91.0002H152.771V89.7202H152.899C158.147 89.7202 161.731 84.7282 161.731 76.5362V15.8642C161.731 7.67224 158.147 2.68024 152.899 2.68024ZM173.891 43.6402H191.299C212.419 43.6402 224.579 2.42424 185.923 2.42424H173.891V43.6402ZM302.273 79.9922L273.217 11.3842L245.185 73.7202C244.289 75.5122 243.905 77.1762 243.905 78.4562C243.905 82.8082 245.569 89.7202 251.969 89.7202H252.609V91.0002H226.625V89.7202C232.641 89.7202 239.937 82.1682 242.241 77.1762L272.833 10.2322L268.993 1.40024H282.177L317.121 81.6562C318.529 84.8562 323.009 89.7202 326.721 89.7202V91.0002H298.945V89.7202H299.329C302.529 89.7202 303.681 88.0562 303.681 85.7522C303.681 83.9602 303.169 81.9122 302.273 79.9922ZM271.809 74.2322V80.7602H271.041V74.2322C271.041 69.1122 267.969 65.7842 263.361 65.7842H262.593V65.0162H263.361C267.969 65.0162 271.041 61.5602 271.041 56.4402V50.0402H271.809V56.4402C271.809 61.5602 274.881 65.0162 279.489 65.0162H280.897V65.7842H279.489C274.881 65.7842 271.809 69.1122 271.809 74.2322ZM317.057 24.1842H316.033L318.977 1.40024H388.737L391.681 24.1842H390.657C387.201 10.4882 376.065 2.55224 364.801 2.55224H360.065V76.5362C360.065 84.7282 363.521 89.7202 368.769 89.7202H368.897V91.0002H338.945V89.7202H339.073C344.321 89.7202 347.777 84.7282 347.777 76.5362V2.55224H342.913C331.649 2.55224 322.177 10.8722 317.057 24.1842ZM458.898 79.9922L429.842 11.3842L401.81 73.7202C400.914 75.5122 400.53 77.1762 400.53 78.4562C400.53 82.8082 402.194 89.7202 408.594 89.7202H409.234V91.0002H383.25V89.7202C389.266 89.7202 396.562 82.1682 398.866 77.1762L429.458 10.2322L425.618 1.40024H438.802L473.746 81.6562C475.154 84.8562 479.634 89.7202 483.346 89.7202V91.0002H455.57V89.7202H455.954C459.154 89.7202 460.306 88.0562 460.306 85.7522C460.306 83.9602 459.794 81.9122 458.898 79.9922ZM428.434 74.2322V80.7602H427.666V74.2322C427.666 69.1122 424.594 65.7842 419.986 65.7842H419.218V65.0162H419.986C424.594 65.0162 427.666 61.5602 427.666 56.4402V50.0402H428.434V56.4402C428.434 61.5602 431.506 65.0162 436.114 65.0162H437.522V65.7842H436.114C431.506 65.7842 428.434 69.1122 428.434 74.2322ZM563.884 91.0002L497.196 12.5362V74.8722C497.196 83.0642 503.596 89.7202 508.844 89.7202H508.972V91.0002H484.14V89.7202H484.268C489.516 89.7202 496.044 83.0642 496.044 74.8722V15.8642C496.044 7.67224 492.46 2.68024 487.212 2.68024V1.40024H503.468L563.884 70.3922V18.4242C563.884 10.2322 557.484 2.68024 552.236 2.68024H552.108V1.40024H575.788V2.68024H575.66C570.412 2.68024 565.036 10.2322 565.036 18.4242V91.0002H563.884Z" fill="#2E2E2E"/>
</g>
<defs>
<filter id="filter0_d_132_89" x="0.76001" y="-0.0078125" width="582.028" height="93.0562" filterUnits="userSpaceOnUse" color-interpolation-filters="sRGB">
<feFlood flood-opacity="0" result="BackgroundImageFix"/>
<feColorMatrix in="SourceAlpha" type="matrix" values="0 0 0 0 0 0 0 0 0 0 0 0 0 0 0 0 0 0 127 0" result="hardAlpha"/>
<feOffset dx="7"/>
<feComposite in2="hardAlpha" operator="out"/>
<feColorMatrix type="matrix" values="0 0 0 0 0 0 0 0 0 0 0 0 0 0 0 0 0 0 0.25 0"/>
<feBlend mode="normal" in2="BackgroundImageFix" result="effect1_dropShadow_132_89"/>
<feBlend mode="normal" in="SourceGraphic" in2="effect1_dropShadow_132_89" result="shape"/>
</filter>
</defs>
</svg>
