<svg width="56" height="57" viewBox="0 0 56 57" fill="none" xmlns="http://www.w3.org/2000/svg">
<rect width="56" height="57" rx="28" fill="#D9D9D9"/>
<path d="M41 23V28C41 28.2652 40.8946 28.5196 40.7071 28.7071C40.5196 28.8946 40.2652 29 40 29C37.911 29.0049 35.8521 28.5026 34 27.5363V32.5C34 35.0196 32.9991 37.4359 31.2175 39.2175C29.4359 40.9991 27.0196 42 24.5 42C21.9804 42 19.5641 40.9991 17.7825 39.2175C16.0009 37.4359 15 35.0196 15 32.5C15 27.8875 18.3637 23.81 22.825 23.015C22.9689 22.9894 23.1167 22.9957 23.2579 23.0334C23.3992 23.0711 23.5304 23.1393 23.6424 23.2332C23.7544 23.3271 23.8445 23.4445 23.9063 23.5769C23.9681 23.7094 24.0001 23.8538 24 24V29.3363C24.0001 29.5255 23.9464 29.7109 23.8453 29.8709C23.7442 30.0309 23.5997 30.1589 23.4288 30.24C23.0245 30.4317 22.6792 30.7283 22.4287 31.099C22.1782 31.4696 22.0317 31.9007 22.0046 32.3472C21.9775 32.7938 22.0707 33.2394 22.2744 33.6376C22.4782 34.0359 22.7851 34.3722 23.1631 34.6114C23.5411 34.8506 23.9764 34.984 24.4236 34.9977C24.8707 35.0114 25.3133 34.9048 25.7053 34.6891C26.0972 34.4735 26.4241 34.1566 26.6518 33.7715C26.8796 33.3865 26.9998 32.9474 27 32.5V16C27 15.7348 27.1054 15.4804 27.2929 15.2929C27.4804 15.1054 27.7348 15 28 15H33C33.2652 15 33.5196 15.1054 33.7071 15.2929C33.8946 15.4804 34 15.7348 34 16C34.0017 17.5908 34.6343 19.116 35.7592 20.2408C36.884 21.3657 38.4092 21.9983 40 22C40.2652 22 40.5196 22.1054 40.7071 22.2929C40.8946 22.4804 41 22.7348 41 23Z" fill="white"/>
</svg>
