<svg width="56" height="57" viewBox="0 0 56 57" fill="none" xmlns="http://www.w3.org/2000/svg">
<rect y="0.501221" width="56" height="55.9975" rx="27.9988" fill="#D9D9D9"/>
<path d="M31.0725 30.6496L33.9475 32.0846C33.8112 32.7656 33.4429 33.3782 32.9054 33.8179C32.3679 34.2576 31.6945 34.4972 31 34.4959C28.6139 34.4932 26.3262 33.5442 24.639 31.8569C22.9517 30.1697 22.0026 27.882 22 25.4959C21.9998 24.8023 22.24 24.13 22.6796 23.5936C23.1192 23.0571 23.7311 22.6895 24.4113 22.5534L25.8462 25.4284L24.625 27.2459C24.5337 27.3828 24.4777 27.5401 24.4617 27.7038C24.4458 27.8676 24.4706 28.0327 24.5337 28.1846C25.2492 29.8851 26.602 31.2379 28.3025 31.9534C28.4549 32.0194 28.6213 32.0464 28.7867 32.032C28.9521 32.0176 29.1113 31.9622 29.25 31.8709L31.0725 30.6496ZM41 28.4959C41.0005 30.7403 40.4199 32.9466 39.3147 34.9001C38.2095 36.8535 36.6174 38.4876 34.6934 39.6432C32.7693 40.7988 30.5788 41.4365 28.3352 41.4944C26.0915 41.5523 23.8711 41.0283 21.89 39.9734L17.6337 41.3921C17.2814 41.5097 16.9032 41.5267 16.5417 41.4414C16.1801 41.3561 15.8495 41.1717 15.5868 40.9091C15.3241 40.6464 15.1398 40.3158 15.0545 39.9542C14.9692 39.5927 14.9862 39.2145 15.1037 38.8621L16.5225 34.6059C15.5952 32.8624 15.0772 30.9306 15.008 28.9571C14.9387 26.9836 15.32 25.0202 16.1228 23.2161C16.9257 21.4119 18.129 19.8143 19.6414 18.5446C21.1538 17.2749 22.9356 16.3665 24.8516 15.8882C26.7675 15.41 28.7672 15.3745 30.699 15.7845C32.6307 16.1945 34.4436 17.0391 36.0001 18.2544C37.5566 19.4696 38.8158 21.0235 39.6822 22.798C40.5485 24.5726 40.9992 26.5212 41 28.4959ZM36 31.4959C36.0001 31.3101 35.9485 31.128 35.8509 30.9699C35.7533 30.8118 35.6136 30.684 35.4475 30.6009L31.4475 28.6009C31.29 28.5224 31.1147 28.4869 30.9391 28.4979C30.7635 28.5088 30.594 28.5659 30.4475 28.6634L28.6112 29.8884C27.7683 29.425 27.0746 28.7313 26.6112 27.8884L27.8363 26.0521C27.9337 25.9057 27.9908 25.7361 28.0018 25.5605C28.0127 25.385 27.9772 25.2096 27.8988 25.0521L25.8988 21.0521C25.8159 20.8847 25.6877 20.7439 25.5289 20.6456C25.37 20.5473 25.1868 20.4954 25 20.4959C23.6739 20.4959 22.4021 21.0227 21.4645 21.9604C20.5268 22.898 20 24.1698 20 25.4959C20.0033 28.4123 21.1633 31.2082 23.2255 33.2704C25.2877 35.3326 28.0836 36.4926 31 36.4959C31.6566 36.4959 32.3068 36.3666 32.9134 36.1153C33.52 35.864 34.0712 35.4957 34.5355 35.0314C34.9998 34.5671 35.3681 34.0159 35.6194 33.4093C35.8707 32.8027 36 32.1525 36 31.4959Z" fill="white"/>
</svg>
